<svg xmlns="http://www.w3.org/2000/svg" width="512" height="512" viewBox="0 0 108 108"><rect width="108" height="108" fill="#0B2D5B"/><path d="M54,21 A33,33 0 1 0 54,87 A33,33 0 1 0 54,21 Z" fill="#F8FAFC"/><defs><clipPath id="page"><path d="M54,13.8 A40.2,40.2 0 1 0 54,94.2 A40.2,40.2 0 1 0 54,13.8 Z"/></clipPath></defs><g transform="translate(54 54) scale(0.82 0.82) translate(-54 -54)"><g clip-path="url(#page)"><path d="M31,19 C26,19 23,23 23,28 L23,79 C23,85 27,89 33,89 L67,89 85,70 85,28 C85,23 81,19 76,19 Z" fill="#F8FAFC"/><path d="M67,89 L85,70 74,70 C69.5,70 67,72.5 67,77 Z" fill="#DBEAFE"/><path d="M37,72 C41,66 47,69 50,62 C52,57 57,60 62,56" fill="none" stroke="#EED77B" stroke-width="4.5" stroke-linecap="round" stroke-linejoin="round"/><path d="M37,67.5 A4.5,4.5 0,1 0,37,76.5 A4.5,4.5 0,1 0,37,67.5" fill="#0B2D5B"/><path d="M62,27 C53.7,27 47,33.2 47,41 C47,51.5 62,63 62,63 C62,63 77,51.5 77,41 C77,33.2 70.3,27 62,27 Z" fill="#0B2D5B"/><path d="M62,34.5 A6.5,6.5 0,1 0,62,47.5 A6.5,6.5 0,1 0,62,34.5" fill="#EED77B"/></g></g></svg>